<svg id="evQzaqORfPU1" xmlns="http://www.w3.org/2000/svg" xmlns:xlink="http://www.w3.org/1999/xlink" viewBox="0 0 64 64" shape-rendering="geometricPrecision" text-rendering="geometricPrecision"><path style="mix-blend-mode:hard-light" d="M320.00001,224.383254c-.20304-12.07486-10.80793-20.930394-20.43255-33.862804-8.25025-6.20728-13.58546-16.08087-13.58546-27.20055c0-18.78762,15.23038-34.01801,34.01801-34.01801s34.01801,15.23038,34.01801,34.01801c0,11.15551-5.36965,21.05687-13.66529,27.26043-8.99479,11.25964-19.71934,19.596026-20.35272,33.802926v-.000002ZM320,183.3199c11.04569,0,20-8.9543,20-20s-8.9543-20-20-20-20,8.9543-20,20s8.9543,20,20,20Z" transform="matrix(.626194 0 0 0.626194-168.382086-78.737757)" fill="none" stroke="#000" stroke-width="4"/></svg>