<svg id="ehQeAF87JUW1" xmlns="http://www.w3.org/2000/svg" xmlns:xlink="http://www.w3.org/1999/xlink" viewBox="0 0 64 64" shape-rendering="geometricPrecision" text-rendering="geometricPrecision"><defs><filter id="ehQeAF87JUW2-filter" x="-150%" width="400%" y="-150%" height="400%"><feGaussianBlur id="ehQeAF87JUW2-filter-blur-0" stdDeviation="0,0" result="result"/></filter></defs><g transform="translate(-.116744 0.933949)" filter="url(#ehQeAF87JUW2-filter)"><path d="M7.62133,31.36645c-2.20914,0-4-1.79086-4-4v-15.83941c0-2.20914,1.79086-4,4-4h33.09334c2.20914,0,4,1.79086,4,4v15.83941c0,2.20914-1.79086,4-4,4h-7.01073L27.99999,36.5l.73336-5.13355h-21.11202Z" transform="matrix(-.946788 0 0 1 44.946308 13.255299)" fill="none" stroke="#000" stroke-width="2"/><g transform="translate(1.517666 3.268819)" mask="url(#ehQeAF87JUW6)"><path d="M7.62133,31.36645c-2.20914,0-4-1.79086-4-4v-15.83941c0-2.20914,1.79086-4,4-4h33.09334c2.20914,0,4,1.79086,4,4v15.83941c0,2.20914-1.79086,4-4,4h-7.01073L27.99999,36.5l.73336-5.13355h-21.11202Z" transform="translate(15.832011-4.5)" fill="none" stroke="#000" stroke-width="2"/><mask id="ehQeAF87JUW6" mask-type="luminance"><path d="M-23.17858,16.25954v-16.70676h94.42099v.29495h.78794v45.00982h-30.03938v-28.59801h-65.16955Z" fill="#d2dbed" stroke-width="0"/></mask></g></g></svg>